<svg xmlns="http://www.w3.org/2000/svg" width="200" height="200" viewBox="0 0 200 200" version="1.1"><path d="" stroke="none" fill="#080404" fill-rule="evenodd"/><path d="M 33.407 11.407 C 21.683 14.253, 13.251 23.128, 11.002 34.991 C 9.977 40.394, 10.374 42.546, 12.548 43.380 C 14.673 44.196, 16.997 41.233, 17.022 37.679 C 17.089 28.035, 28.228 17, 37.896 17 C 40.341 17, 44 14.902, 44 13.500 C 44 12.593, 40.730 10.009, 39.679 10.085 C 39.030 10.132, 36.208 10.726, 33.407 11.407 M 157.572 11.571 C 155.641 13.502, 155.641 13.498, 157.571 15.429 C 158.436 16.293, 160.475 17, 162.104 17 C 171.772 17, 182.911 28.035, 182.978 37.679 C 183.003 41.233, 185.327 44.196, 187.452 43.380 C 189.673 42.528, 190.041 40.301, 188.883 34.715 C 186.234 21.937, 176.265 12.540, 163.322 10.619 C 160.226 10.160, 158.736 10.407, 157.572 11.571 M 34.500 22.207 C 32.850 22.783, 30.101 24.297, 28.391 25.571 C 23.087 29.522, 19.260 40.311, 22.275 42.814 C 24.673 44.803, 26.800 43.143, 27.551 38.696 C 28.486 33.163, 33.163 28.486, 38.696 27.551 C 43.078 26.811, 44.808 24.678, 42.895 22.373 C 41.572 20.780, 38.742 20.724, 34.500 22.207 M 157.186 22.275 C 155.197 24.673, 156.857 26.800, 161.304 27.551 C 166.837 28.486, 171.514 33.163, 172.449 38.696 C 173.228 43.307, 175.508 44.920, 177.886 42.542 C 179.203 41.226, 179.240 40.346, 178.151 36.274 C 177.454 33.668, 175.810 30.129, 174.498 28.409 C 170.425 23.068, 159.686 19.263, 157.186 22.275 M 57.255 39.349 L 46.906 49.699 47.203 86.331 L 47.500 122.964 50.767 126.232 L 54.035 129.500 70.017 129.838 L 86 130.176 86 135.088 L 86 140 73.770 140 L 61.540 140 52.770 148.729 L 44 157.458 44 172.529 C 44 182.918, 44.373 187.973, 45.200 188.800 C 46.104 189.704, 59.673 190, 100.129 190 C 147.639 190, 154.039 189.818, 155.429 188.429 C 156.708 187.149, 157 184.245, 157 172.794 L 157 158.731 147.816 149.365 L 138.632 140 126.816 140 L 115 140 115 135 L 115 130 129.550 130 C 140.599 130, 144.805 129.635, 147.033 128.483 C 152.880 125.459, 153 124.592, 153 85.282 L 153 49.464 142.733 39.232 L 132.466 29 100.035 29 L 67.605 29 57.255 39.349 M 36.364 33.170 C 32.633 34.976, 30.843 40.795, 33.373 42.895 C 35.263 44.463, 37.819 43.280, 38.192 40.665 C 38.381 39.333, 39.333 38.381, 40.665 38.192 C 43.280 37.819, 44.463 35.263, 42.895 33.373 C 41.571 31.778, 39.379 31.710, 36.364 33.170 M 157.105 33.373 C 155.537 35.263, 156.720 37.819, 159.335 38.192 C 160.667 38.381, 161.619 39.333, 161.808 40.665 C 162.364 44.563, 168 44.344, 168 40.425 C 168 34.695, 160.199 29.646, 157.105 33.373 M 61.714 43.785 L 53.974 51.570 54.237 87.035 L 54.500 122.500 58.750 122.807 C 61.087 122.977, 63 122.892, 63 122.620 C 63 122.348, 64.577 107.393, 66.505 89.386 C 69.109 65.058, 70.406 56.209, 71.555 54.940 C 74.585 51.591, 81.699 50.500, 100.500 50.500 C 115.449 50.500, 119.292 50.806, 123.171 52.303 C 125.740 53.294, 128.309 54.668, 128.880 55.355 C 129.620 56.247, 137 117.350, 137 122.583 C 137 122.876, 138.912 122.977, 141.250 122.807 L 145.500 122.500 145.763 87.035 L 146.026 51.570 138.286 43.785 L 130.547 36 100 36 L 69.453 36 61.714 43.785 M 82.072 57.088 C 79.636 57.566, 77.273 58.327, 76.820 58.780 C 76.366 59.234, 74.653 72.181, 73.013 87.552 C 71.372 102.923, 69.793 117.188, 69.503 119.250 L 68.976 123 100 123 L 131.024 123 130.495 119.250 C 130.204 117.188, 128.618 102.917, 126.970 87.537 C 125.322 72.157, 123.626 59.226, 123.202 58.802 C 120.645 56.245, 92.374 55.067, 82.072 57.088 M 94.108 64.716 C 91.803 65.852, 90.097 67.787, 88.783 70.757 C 87.057 74.659, 86.992 75.573, 88.175 79.284 C 90.644 87.028, 99.670 90.328, 106.686 86.050 C 110.629 83.646, 112.273 80.696, 112.273 76.025 C 112.273 70.990, 109.692 66.556, 105.643 64.635 C 101.308 62.578, 98.408 62.598, 94.108 64.716 M 96.223 70.557 C 93.421 72.519, 93.201 77.967, 95.829 80.345 C 100.018 84.136, 106 81.127, 106 75.228 C 106 72.007, 103.103 69, 100 69 C 99.145 69, 97.445 69.701, 96.223 70.557 M 97.332 74.578 C 96.999 75.445, 97.463 76.892, 98.363 77.792 C 99.879 79.307, 100.121 79.307, 101.637 77.792 C 103.681 75.747, 102.743 73, 100 73 C 98.865 73, 97.665 73.710, 97.332 74.578 M 94.108 94.716 C 91.803 95.852, 90.097 97.787, 88.783 100.757 C 87.057 104.659, 86.992 105.573, 88.175 109.284 C 90.644 117.028, 99.670 120.328, 106.686 116.050 C 110.629 113.646, 112.273 110.696, 112.273 106.025 C 112.273 100.990, 109.692 96.556, 105.643 94.635 C 101.308 92.578, 98.408 92.598, 94.108 94.716 M 96.223 100.557 C 91.831 103.633, 94.305 112, 99.606 112 C 100.678 112, 102.555 111.299, 103.777 110.443 C 108.296 107.278, 105.563 99, 100 99 C 99.145 99, 97.445 99.701, 96.223 100.557 M 97.993 103.508 C 96.226 105.637, 97.560 108.202, 100.235 107.820 C 103.119 107.409, 103.702 104.446, 101.165 103.088 C 99.689 102.298, 98.912 102.401, 97.993 103.508 M 91 135.965 C 91 143.022, 92.095 144, 100 144 C 107.905 144, 109 143.022, 109 135.965 L 109 130 100 130 L 91 130 91 135.965 M 59.500 151 L 54.575 156 100 156 L 145.425 156 140.500 151 L 135.575 146 124.845 146 C 116.157 146, 113.485 146.360, 110.807 147.889 C 108.988 148.928, 105.783 150.079, 103.685 150.447 C 99.079 151.253, 89.616 149.448, 87.954 147.445 C 87.040 146.343, 84.106 146, 75.590 146 L 64.425 146 59.500 151 M 50 172.500 L 50 183 100 183 L 150 183 150 172.500 L 150 162 100 162 L 50 162 50 172.500 M 57.422 169.342 C 56.207 172.510, 57.427 176.490, 59.715 176.815 C 64.008 177.425, 63.935 169.021, 59.640 168.176 C 58.735 167.998, 57.737 168.522, 57.422 169.342 M 138.086 169.397 C 137.409 170.212, 137.001 172.144, 137.178 173.690 C 137.435 175.935, 138.003 176.500, 140 176.500 C 142.249 176.500, 142.500 176.099, 142.500 172.514 C 142.500 168.177, 140.355 166.663, 138.086 169.397" stroke="none" fill="#040404" fill-rule="evenodd"/></svg>